<svg width="51" height="37" viewBox="0 0 51 37" fill="none" xmlns="http://www.w3.org/2000/svg">
<g clip-path="url(#clip0_78_542)">
<rect width="51" height="37" fill="white"/>
<path d="M39.2566 1.86422L39.057 1.90506L27.3215 15.078L28.1072 15.6658L30.1658 16.7833L30.359 17.118L24.9353 22.9274L27.6162 23.8344L27.657 24.034L21.0278 31.8783L29.8289 23.6727L26.884 22.695L26.8431 22.4954L32.9772 16.4991L29.7982 14.987L29.8045 14.6114L35.0885 7.91571L37.7808 4.20406L39.2566 1.86422Z" fill="#EF4136"/>
<path d="M6.24 16.996C6.496 16.996 6.696 17.068 6.84 17.212C6.992 17.356 7.068 17.556 7.068 17.812C7.068 17.876 7.064 17.944 7.056 18.016C7.048 18.08 7.032 18.136 7.008 18.184C6.904 18.168 6.788 18.156 6.66 18.148C6.532 18.132 6.38 18.124 6.204 18.124C5.844 18.124 5.484 18.156 5.124 18.22C4.764 18.284 4.42 18.336 4.092 18.376C3.732 19.224 3.436 20.02 3.204 20.764C2.972 21.508 2.792 22.244 2.664 22.972C2.392 22.908 2.152 22.792 1.944 22.624C1.736 22.456 1.54 22.22 1.356 21.916C1.412 21.788 1.48 21.636 1.56 21.46C1.64 21.276 1.736 21.048 1.848 20.776C1.96 20.496 2.092 20.16 2.244 19.768C2.404 19.368 2.592 18.892 2.808 18.34C2.472 18.228 2.252 18.032 2.148 17.752C2.188 17.712 2.3 17.668 2.484 17.62C2.668 17.564 2.892 17.504 3.156 17.44C3.276 17.128 3.38 16.852 3.468 16.612C3.556 16.364 3.636 16.132 3.708 15.916C3.78 15.692 3.844 15.476 3.9 15.268C3.964 15.052 4.02 14.824 4.068 14.584H4.008C3.704 14.584 3.456 14.512 3.264 14.368C3.08 14.224 2.988 14.036 2.988 13.804C2.988 13.74 2.996 13.664 3.012 13.576C3.036 13.488 3.064 13.412 3.096 13.348C3.248 13.372 3.396 13.388 3.54 13.396C3.692 13.404 3.888 13.408 4.128 13.408C4.632 13.408 5.104 13.396 5.544 13.372C5.984 13.34 6.38 13.308 6.732 13.276C7.092 13.244 7.4 13.216 7.656 13.192C7.912 13.16 8.108 13.144 8.244 13.144C8.428 13.144 8.592 13.24 8.736 13.432C8.88 13.624 8.992 13.896 9.072 14.248C8.816 14.224 8.608 14.208 8.448 14.2C8.296 14.192 8.16 14.188 8.04 14.188C7.632 14.188 7.256 14.208 6.912 14.248C6.576 14.28 6.256 14.32 5.952 14.368C5.904 14.44 5.848 14.532 5.784 14.644C5.728 14.756 5.652 14.916 5.556 15.124C5.46 15.324 5.336 15.588 5.184 15.916C5.04 16.244 4.856 16.66 4.632 17.164C4.944 17.116 5.24 17.076 5.52 17.044C5.808 17.012 6.048 16.996 6.24 16.996ZM11.7142 17.152C11.7942 17.152 11.8862 17.168 11.9902 17.2C12.1022 17.224 12.2022 17.26 12.2902 17.308C12.3782 17.348 12.4502 17.392 12.5062 17.44C12.5702 17.488 12.6022 17.532 12.6022 17.572C12.4422 17.908 12.2942 18.248 12.1582 18.592C12.0222 18.928 11.9062 19.252 11.8102 19.564C11.7142 19.876 11.6382 20.168 11.5822 20.44C11.5342 20.712 11.5102 20.948 11.5102 21.148C11.5102 21.372 11.5342 21.56 11.5822 21.712C11.6302 21.856 11.7102 21.96 11.8222 22.024C11.7262 22.088 11.6022 22.14 11.4502 22.18C11.2982 22.22 11.1622 22.24 11.0422 22.24C10.6102 22.24 10.3942 21.944 10.3942 21.352C10.3942 20.896 10.5462 20.272 10.8502 19.48C10.6902 19.848 10.5062 20.196 10.2982 20.524C10.0902 20.844 9.87816 21.128 9.66216 21.376C9.44616 21.624 9.22616 21.828 9.00216 21.988C8.78616 22.14 8.58616 22.232 8.40216 22.264C8.10616 22.248 7.86616 22.108 7.68216 21.844C7.49816 21.572 7.40616 21.228 7.40616 20.812C7.40616 20.364 7.50216 19.892 7.69416 19.396C7.88616 18.9 8.13016 18.44 8.42616 18.016C8.73016 17.592 9.05816 17.24 9.41016 16.96C9.76216 16.672 10.1022 16.52 10.4302 16.504C10.5102 16.528 10.5982 16.576 10.6942 16.648C10.7982 16.72 10.8942 16.804 10.9822 16.9C11.0782 16.996 11.1582 17.096 11.2222 17.2C11.2862 17.296 11.3222 17.38 11.3302 17.452C11.0102 17.5 10.6782 17.656 10.3342 17.92C9.99816 18.184 9.69016 18.504 9.41016 18.88C9.13816 19.248 8.91416 19.644 8.73816 20.068C8.56216 20.492 8.47416 20.888 8.47416 21.256C8.47416 21.408 8.53016 21.504 8.64216 21.544C8.87416 21.496 9.14216 21.3 9.44616 20.956C9.75016 20.604 10.1182 20.064 10.5502 19.336C10.6302 19.192 10.7182 19.032 10.8142 18.856C10.9182 18.68 11.0222 18.496 11.1262 18.304C11.2302 18.112 11.3302 17.92 11.4262 17.728C11.5302 17.528 11.6262 17.336 11.7142 17.152ZM16.428 21.736C16.276 21.608 16.172 21.448 16.116 21.256C16.068 21.064 16.044 20.9 16.044 20.764C16.044 20.596 16.064 20.452 16.104 20.332C16.072 20.332 16 20.396 15.888 20.524C15.776 20.652 15.652 20.804 15.516 20.98C15.388 21.156 15.26 21.328 15.132 21.496C15.004 21.664 14.908 21.788 14.844 21.868C14.74 21.98 14.64 22.068 14.544 22.132C14.456 22.196 14.384 22.232 14.328 22.24C14.2 22.232 14.064 22.204 13.92 22.156C13.784 22.116 13.652 22.056 13.524 21.976C13.404 21.896 13.296 21.8 13.2 21.688C13.112 21.576 13.052 21.448 13.02 21.304C13.02 21.08 13.024 20.896 13.032 20.752C13.048 20.608 13.076 20.452 13.116 20.284C13.188 19.98 13.292 19.636 13.428 19.252C13.572 18.868 13.736 18.492 13.92 18.124C14.104 17.748 14.308 17.4 14.532 17.08C14.764 16.752 15.008 16.496 15.264 16.312C15.336 16.312 15.42 16.32 15.516 16.336C15.612 16.344 15.708 16.364 15.804 16.396C15.908 16.428 16.004 16.468 16.092 16.516C16.188 16.556 16.268 16.612 16.332 16.684C16.26 16.764 16.076 17.032 15.78 17.488C15.492 17.944 15.168 18.6 14.808 19.456C14.768 19.544 14.72 19.672 14.664 19.84C14.608 20.008 14.552 20.184 14.496 20.368C14.44 20.552 14.392 20.732 14.352 20.908C14.32 21.084 14.304 21.224 14.304 21.328C14.304 21.392 14.312 21.44 14.328 21.472C14.352 21.504 14.372 21.528 14.388 21.544C14.508 21.496 14.66 21.364 14.844 21.148C15.028 20.932 15.284 20.6 15.612 20.152C15.692 20.04 15.784 19.912 15.888 19.768C16 19.624 16.112 19.472 16.224 19.312C16.336 19.144 16.44 18.972 16.536 18.796C16.64 18.62 16.724 18.444 16.788 18.268C16.82 18.172 16.86 18.06 16.908 17.932C16.964 17.796 17.028 17.656 17.1 17.512C17.18 17.368 17.268 17.224 17.364 17.08C17.468 16.928 17.588 16.788 17.724 16.66C17.828 16.66 17.94 16.672 18.06 16.696C18.18 16.72 18.292 16.752 18.396 16.792C18.508 16.824 18.604 16.864 18.684 16.912C18.764 16.952 18.824 16.996 18.864 17.044C18.72 17.396 18.56 17.744 18.384 18.088C18.208 18.432 18.044 18.772 17.892 19.108C17.74 19.436 17.612 19.764 17.508 20.092C17.404 20.42 17.352 20.74 17.352 21.052C17.352 21.22 17.364 21.368 17.388 21.496C17.42 21.616 17.452 21.72 17.484 21.808C17.516 21.888 17.544 21.956 17.568 22.012C17.6 22.068 17.616 22.116 17.616 22.156C17.616 22.164 17.608 22.176 17.592 22.192C17.584 22.2 17.576 22.204 17.568 22.204C17.512 22.204 17.44 22.192 17.352 22.168C17.264 22.144 17.164 22.108 17.052 22.06C16.948 22.02 16.84 21.972 16.728 21.916C16.624 21.86 16.524 21.8 16.428 21.736ZM19.0817 21.232C19.0817 20.88 19.1657 20.388 19.3337 19.756C19.5017 19.116 19.7377 18.372 20.0417 17.524C20.5377 16.172 21.0017 15.048 21.4337 14.152C21.8737 13.248 22.3017 12.544 22.7177 12.04C22.8137 12.056 22.9297 12.096 23.0657 12.16C23.2097 12.224 23.3497 12.296 23.4857 12.376C23.6217 12.448 23.7417 12.524 23.8457 12.604C23.9577 12.684 24.0297 12.748 24.0617 12.796C23.4377 13.532 22.8897 14.324 22.4177 15.172C21.9457 16.02 21.5137 16.992 21.1217 18.088C20.7857 19.032 20.5297 19.884 20.3537 20.644C20.1777 21.396 20.0897 22.024 20.0897 22.528C20.0897 22.664 20.0897 22.748 20.0897 22.78C20.0897 22.812 20.0937 22.844 20.1017 22.876C19.9897 22.86 19.8937 22.832 19.8137 22.792C19.7337 22.752 19.6817 22.704 19.6577 22.648C19.6417 22.608 19.5977 22.548 19.5257 22.468C19.4537 22.396 19.3897 22.34 19.3337 22.3C19.2617 22.252 19.2017 22.128 19.1537 21.928C19.1057 21.72 19.0817 21.488 19.0817 21.232ZM22.6376 17.404C22.5976 17.356 22.5616 17.256 22.5296 17.104C22.4976 16.944 22.4816 16.808 22.4816 16.696C22.6896 16.712 22.8896 16.728 23.0816 16.744C23.2736 16.752 23.4496 16.76 23.6096 16.768C23.7296 16.528 23.8576 16.292 23.9936 16.06C24.1376 15.82 24.2736 15.604 24.4016 15.412C24.5376 15.212 24.6616 15.044 24.7736 14.908C24.8936 14.772 24.9856 14.684 25.0496 14.644C25.1296 14.644 25.2296 14.66 25.3496 14.692C25.4776 14.716 25.6056 14.752 25.7336 14.8C25.8616 14.84 25.9776 14.884 26.0816 14.932C26.1856 14.98 26.2576 15.028 26.2976 15.076C26.0576 15.38 25.8496 15.664 25.6736 15.928C25.5056 16.184 25.3216 16.48 25.1216 16.816C25.2816 16.816 25.4416 16.812 25.6016 16.804C25.7696 16.796 25.9376 16.784 26.1056 16.768C26.1456 16.808 26.1776 16.86 26.2016 16.924C26.2256 16.98 26.2376 17.04 26.2376 17.104C25.8456 17.248 25.3696 17.328 24.8096 17.344C24.6096 17.728 24.4296 18.112 24.2696 18.496C24.1176 18.872 23.9856 19.236 23.8736 19.588C23.7696 19.94 23.6856 20.272 23.6216 20.584C23.5656 20.896 23.5376 21.176 23.5376 21.424C23.5376 21.776 23.6696 21.972 23.9336 22.012C24.1736 21.98 24.4016 21.92 24.6176 21.832C24.8336 21.744 25.0256 21.632 25.1936 21.496C25.2416 21.568 25.2696 21.628 25.2776 21.676C25.2296 21.748 25.1456 21.832 25.0256 21.928C24.9136 22.024 24.7896 22.116 24.6536 22.204C24.5176 22.3 24.3856 22.38 24.2576 22.444C24.1296 22.508 24.0336 22.544 23.9696 22.552C23.7696 22.544 23.5696 22.5 23.3696 22.42C23.1696 22.34 22.9856 22.24 22.8176 22.12C22.6576 22 22.5256 21.868 22.4216 21.724C22.3176 21.572 22.2656 21.424 22.2656 21.28C22.2656 21.088 22.2896 20.848 22.3376 20.56C22.3936 20.264 22.4696 19.944 22.5656 19.6C22.6616 19.256 22.7736 18.896 22.9016 18.52C23.0296 18.144 23.1696 17.772 23.3216 17.404H22.6376ZM31.8551 21.232C31.8551 20.88 31.9391 20.388 32.1071 19.756C32.2751 19.116 32.5111 18.372 32.8151 17.524C33.3111 16.172 33.7751 15.048 34.2071 14.152C34.6471 13.248 35.0751 12.544 35.4911 12.04C35.5871 12.056 35.7031 12.096 35.8391 12.16C35.9831 12.224 36.1231 12.296 36.2591 12.376C36.3951 12.448 36.5151 12.524 36.6191 12.604C36.7311 12.684 36.8031 12.748 36.8351 12.796C36.2111 13.532 35.6631 14.324 35.1911 15.172C34.7191 16.02 34.2871 16.992 33.8951 18.088C33.5591 19.032 33.3031 19.884 33.1271 20.644C32.9511 21.396 32.8631 22.024 32.8631 22.528C32.8631 22.664 32.8631 22.748 32.8631 22.78C32.8631 22.812 32.8671 22.844 32.8751 22.876C32.7631 22.86 32.6671 22.832 32.5871 22.792C32.5071 22.752 32.4551 22.704 32.4311 22.648C32.4151 22.608 32.3711 22.548 32.2991 22.468C32.2271 22.396 32.1631 22.34 32.1071 22.3C32.0351 22.252 31.9751 22.128 31.9271 21.928C31.8791 21.72 31.8551 21.488 31.8551 21.232ZM34.7151 21.196C34.7151 21.124 34.7191 21.036 34.7271 20.932C34.7431 20.82 34.7671 20.676 34.7991 20.5C34.8311 20.316 34.8711 20.096 34.9191 19.84C34.9751 19.584 35.0431 19.276 35.1231 18.916C35.1391 18.836 35.1751 18.708 35.2311 18.532C35.2871 18.356 35.3591 18.172 35.4471 17.98C35.5431 17.78 35.6551 17.588 35.7831 17.404C35.9191 17.22 36.0791 17.084 36.2631 16.996C36.3991 17.028 36.5791 17.112 36.8031 17.248C37.0271 17.376 37.2191 17.556 37.3791 17.788C37.1951 17.996 37.0391 18.204 36.9111 18.412C36.7911 18.62 36.6791 18.836 36.5751 19.06C36.4791 19.284 36.3871 19.516 36.2991 19.756C36.2191 19.996 36.1271 20.248 36.0231 20.512C35.9351 20.736 35.8551 20.968 35.7831 21.208C35.7111 21.44 35.6711 21.644 35.6631 21.82C35.6631 21.964 35.6591 22.064 35.6511 22.12C35.6511 22.184 35.6311 22.216 35.5911 22.216C35.5591 22.216 35.4951 22.196 35.3991 22.156C35.3031 22.116 35.2031 22.056 35.0991 21.976C35.0031 21.888 34.9151 21.78 34.8351 21.652C34.7551 21.524 34.7151 21.372 34.7151 21.196ZM37.0071 15.988C37.0071 15.94 37.0191 15.868 37.0431 15.772C37.0031 15.732 36.9671 15.672 36.9351 15.592C36.9111 15.512 36.8991 15.44 36.8991 15.376C36.8991 15.304 36.9071 15.208 36.9231 15.088C36.9471 14.96 36.9751 14.824 37.0071 14.68C37.0391 14.536 37.0791 14.388 37.1271 14.236C37.1751 14.076 37.2231 13.932 37.2711 13.804C37.3671 13.804 37.4831 13.832 37.6191 13.888C37.7631 13.936 37.9071 14.004 38.0511 14.092C38.1951 14.172 38.3271 14.264 38.4471 14.368C38.5671 14.464 38.6591 14.556 38.7231 14.644C38.6351 14.732 38.5191 14.856 38.3751 15.016C38.2311 15.168 38.0911 15.332 37.9551 15.508C37.8191 15.676 37.6951 15.836 37.5831 15.988C37.4711 16.14 37.3991 16.248 37.3671 16.312C37.2711 16.296 37.1871 16.256 37.1151 16.192C37.0431 16.12 37.0071 16.052 37.0071 15.988ZM39.483 16.18C39.691 16.244 39.887 16.388 40.071 16.612C40.255 16.828 40.391 17.068 40.479 17.332C40.391 17.548 40.255 17.808 40.071 18.112C39.887 18.416 39.703 18.728 39.519 19.048C39.335 19.36 39.167 19.66 39.015 19.948C38.871 20.228 38.787 20.46 38.763 20.644C38.891 20.508 39.031 20.352 39.183 20.176C39.343 19.992 39.495 19.812 39.639 19.636C39.791 19.452 39.931 19.288 40.059 19.144C40.187 18.992 40.287 18.88 40.359 18.808C40.511 18.648 40.691 18.464 40.899 18.256C41.107 18.04 41.323 17.84 41.547 17.656C41.779 17.464 42.011 17.304 42.243 17.176C42.475 17.04 42.687 16.972 42.879 16.972C43.087 16.972 43.259 17.044 43.395 17.188C43.539 17.324 43.651 17.468 43.731 17.62C43.731 17.636 43.699 17.66 43.635 17.692C43.579 17.716 43.495 17.792 43.383 17.92C43.271 18.064 43.143 18.264 42.999 18.52C42.863 18.768 42.727 19.04 42.591 19.336C42.463 19.624 42.355 19.92 42.267 20.224C42.179 20.528 42.135 20.804 42.135 21.052C42.135 21.252 42.159 21.38 42.207 21.436C42.263 21.492 42.339 21.52 42.435 21.52C42.523 21.52 42.615 21.5 42.711 21.46C42.807 21.42 42.883 21.4 42.939 21.4C42.971 21.416 42.995 21.452 43.011 21.508C43.035 21.556 43.047 21.6 43.047 21.64C42.983 21.696 42.907 21.752 42.819 21.808C42.731 21.864 42.639 21.916 42.543 21.964C42.447 22.012 42.351 22.052 42.255 22.084C42.167 22.116 42.087 22.132 42.015 22.132C41.783 22.132 41.591 22.096 41.439 22.024C41.295 21.96 41.179 21.872 41.091 21.76C41.011 21.648 40.955 21.516 40.923 21.364C40.891 21.204 40.875 21.036 40.875 20.86C40.875 20.764 40.883 20.656 40.899 20.536C40.915 20.416 40.947 20.276 40.995 20.116C41.043 19.948 41.111 19.752 41.199 19.528C41.287 19.296 41.399 19.02 41.535 18.7C41.519 18.7 41.411 18.756 41.211 18.868C41.011 18.98 40.795 19.152 40.563 19.384C40.187 19.744 39.847 20.1 39.543 20.452C39.247 20.804 38.943 21.196 38.631 21.628C38.455 21.876 38.299 22.084 38.163 22.252C38.035 22.428 37.923 22.544 37.827 22.6C37.659 22.504 37.535 22.368 37.455 22.192C37.375 22.024 37.315 21.848 37.275 21.664C37.275 21.512 37.295 21.32 37.335 21.088C37.383 20.856 37.443 20.6 37.515 20.32C37.595 20.032 37.691 19.732 37.803 19.42C37.915 19.108 38.039 18.796 38.175 18.484C38.479 17.78 38.755 17.228 39.003 16.828C39.259 16.428 39.419 16.212 39.483 16.18ZM48.3155 17.032C48.2835 17.528 48.1955 17.956 48.0515 18.316C47.9075 18.668 47.6995 18.98 47.4275 19.252C47.1635 19.516 46.8395 19.756 46.4555 19.972C46.0715 20.188 45.6235 20.396 45.1115 20.596C45.1115 20.644 45.1075 20.696 45.0995 20.752C45.0995 20.8 45.0995 20.852 45.0995 20.908C45.0995 21.012 45.1075 21.12 45.1235 21.232C45.1395 21.344 45.1675 21.448 45.2075 21.544C45.2475 21.64 45.3035 21.72 45.3755 21.784C45.4475 21.84 45.5395 21.868 45.6515 21.868C45.8675 21.868 46.0795 21.82 46.2875 21.724C46.4955 21.628 46.6915 21.512 46.8755 21.376C47.0675 21.232 47.2435 21.08 47.4035 20.92C47.5715 20.752 47.7195 20.6 47.8475 20.464C47.9275 20.536 47.9955 20.604 48.0515 20.668C47.6915 21.148 47.2955 21.548 46.8635 21.868C46.4395 22.18 46.0355 22.38 45.6515 22.468C45.0995 22.404 44.6675 22.204 44.3555 21.868C44.0515 21.524 43.8995 21.112 43.8995 20.632C43.8995 20.304 43.9435 19.972 44.0315 19.636C44.1275 19.292 44.2555 18.964 44.4155 18.652C44.5835 18.332 44.7755 18.032 44.9915 17.752C45.2155 17.472 45.4515 17.228 45.6995 17.02C45.9555 16.812 46.2155 16.648 46.4795 16.528C46.7515 16.408 47.0195 16.348 47.2835 16.348C47.6515 16.396 47.9955 16.624 48.3155 17.032ZM47.4875 17.428C47.2715 17.46 47.0475 17.548 46.8155 17.692C46.5835 17.836 46.3635 18.028 46.1555 18.268C45.9555 18.508 45.7715 18.788 45.6035 19.108C45.4355 19.428 45.3035 19.772 45.2075 20.14C45.8475 19.82 46.3795 19.428 46.8035 18.964C47.2275 18.492 47.4555 17.98 47.4875 17.428Z" fill="black"/>
<path d="M23.9039 24.4679L23.7923 24.3819H23.4576L23.346 24.2959H22.1188L22.0072 24.2099H21.3378L21.2263 24.1239H18.5487L18.4371 24.2099H16.9867L16.8752 24.2959H15.6479L15.5363 24.3819L13.1934 24.4679L13.0819 24.5539H12.0778L11.9662 24.6399H10.9621L10.8505 24.7259H10.0696L9.95801 24.812H9.06547L8.95391 24.898H8.17294L8.06137 24.984H7.39197L7.2804 25.07H6.49943L6.38787 25.156L4.9375 25.242L4.82593 25.328H4.2681L4.15653 25.414H3.5987L3.48713 25.5H2.81773L2.70616 25.586H2.25989L2.14833 25.672H1.59049L1.47893 25.758H1.14423V25.93L0.921091 26.016L0.809525 26.188L1.03266 26.3601H1.36736L1.47893 26.4461H2.14833L2.25989 26.5321H2.59459L2.70616 26.6181H2.92929L3.71026 26.8761H4.15653L4.2681 26.7901H4.9375L5.04907 26.7041H5.71847L5.83003 26.6181H6.611L6.72257 26.5321H7.39197L7.50354 26.4461H8.2845L8.39607 26.3601H9.06547L9.17704 26.2741H9.95801L10.0696 26.188H10.739L10.8505 26.102H11.5199L11.6315 26.016H12.3009L12.4125 25.93H13.0819L13.1934 25.844H13.8628L13.9744 25.758H14.6438L14.7554 25.672H15.3132L15.4248 25.586H16.2058L16.3173 25.5H16.9867L17.0983 25.414L18.8834 25.328L18.9949 25.242H19.999L20.1106 25.156H21.1147L21.2263 25.07H22.1188L22.5651 24.898H22.8998L23.346 24.7259H23.6807L23.9039 24.5539V24.4679Z" fill="#1F2933"/>
<path d="M49.9982 23.0465H49.8839L49.7697 22.9584H49.3126L49.1983 23.0465H45.1989L45.0846 23.1346H43.942L43.8277 23.2227H42.7993L42.685 23.3108H41.8851L41.7708 23.3989H40.8567L40.7424 23.487H40.0568L39.9425 23.5751H39.1427L39.0284 23.6632H38.2285L38.1142 23.7512H37.4286L37.3144 23.8393H36.5145L36.4002 23.9274H35.3718L35.2575 24.0155H34.3434L34.2291 24.1036H33.6578L32.8579 24.6321V24.7202L32.5151 24.9845V25.0726L32.2865 25.2488V25.3368L31.7152 25.8654V26.0416H32.6293L32.7436 25.9535H32.9721L33.0864 25.8654H33.2007L33.3149 25.7773H33.5435L33.6578 25.6892H34.0006L34.1148 25.6011H34.3434L34.4576 25.513H34.9147L35.029 25.4249H35.3718L35.4861 25.3368H35.9431L36.0574 25.2488H36.6287L36.743 25.1607H37.2001L37.3144 25.0726H38L38.1142 24.9845H38.5713L38.6856 24.8964H39.3712L39.4855 24.8083H40.0568L40.1711 24.7202H40.7424L40.8567 24.6321H41.3138L41.428 24.544H41.8851L41.9994 24.456H42.4565L42.5707 24.3679H43.1421L43.2563 24.2798H43.8277L43.942 24.1917H44.5133L44.6276 24.1036H45.0846L45.1989 24.0155H45.656L45.7703 23.9274H46.1131L46.2273 23.8393H46.5701L46.6844 23.7512H47.1415L47.2557 23.6632H47.5986L47.7128 23.5751H48.1699L48.2842 23.487H48.7412L48.8555 23.3989H49.3126L49.4269 23.3108H49.8839L49.9982 23.2227V23.0465Z" fill="#1F2933"/>
</g>
<defs>
<clipPath id="clip0_78_542">
<rect width="51" height="37" fill="white"/>
</clipPath>
</defs>
</svg>
