<svg width="51" height="30" viewBox="0 0 51 30" fill="none" xmlns="http://www.w3.org/2000/svg">
<g clip-path="url(#clip0_78_542)">
<rect width="51" height="30" fill="white"/>
<path d="M38.2288 0.546651L38.0293 0.587493L26.2937 13.7604L27.0794 14.3482L29.138 15.4657L29.3313 15.8005L23.9075 21.6098L26.5884 22.5168L26.6292 22.7164L20 30.5608L28.8011 22.3551L25.8562 21.3774L25.8153 21.1778L31.9494 15.1815L28.7704 13.6695L28.7767 13.2939L34.0607 6.59815L36.753 2.88649L38.2288 0.546651Z" fill="#EF4136"/>
<path d="M6.24 12.996C6.496 12.996 6.696 13.068 6.84 13.212C6.992 13.356 7.068 13.556 7.068 13.812C7.068 13.876 7.064 13.944 7.056 14.016C7.048 14.08 7.032 14.136 7.008 14.184C6.904 14.168 6.788 14.156 6.66 14.148C6.532 14.132 6.38 14.124 6.204 14.124C5.844 14.124 5.484 14.156 5.124 14.22C4.764 14.284 4.42 14.336 4.092 14.376C3.732 15.224 3.436 16.02 3.204 16.764C2.972 17.508 2.792 18.244 2.664 18.972C2.392 18.908 2.152 18.792 1.944 18.624C1.736 18.456 1.54 18.22 1.356 17.916C1.412 17.788 1.48 17.636 1.56 17.46C1.64 17.276 1.736 17.048 1.848 16.776C1.96 16.496 2.092 16.16 2.244 15.768C2.404 15.368 2.592 14.892 2.808 14.34C2.472 14.228 2.252 14.032 2.148 13.752C2.188 13.712 2.3 13.668 2.484 13.62C2.668 13.564 2.892 13.504 3.156 13.44C3.276 13.128 3.38 12.852 3.468 12.612C3.556 12.364 3.636 12.132 3.708 11.916C3.78 11.692 3.844 11.476 3.9 11.268C3.964 11.052 4.02 10.824 4.068 10.584H4.008C3.704 10.584 3.456 10.512 3.264 10.368C3.08 10.224 2.988 10.036 2.988 9.804C2.988 9.74 2.996 9.664 3.012 9.576C3.036 9.488 3.064 9.412 3.096 9.348C3.248 9.372 3.396 9.388 3.54 9.396C3.692 9.404 3.888 9.408 4.128 9.408C4.632 9.408 5.104 9.396 5.544 9.372C5.984 9.34 6.38 9.308 6.732 9.276C7.092 9.244 7.4 9.216 7.656 9.192C7.912 9.16 8.108 9.144 8.244 9.144C8.428 9.144 8.592 9.24 8.736 9.432C8.88 9.624 8.992 9.896 9.072 10.248C8.816 10.224 8.608 10.208 8.448 10.2C8.296 10.192 8.16 10.188 8.04 10.188C7.632 10.188 7.256 10.208 6.912 10.248C6.576 10.28 6.256 10.32 5.952 10.368C5.904 10.44 5.848 10.532 5.784 10.644C5.728 10.756 5.652 10.916 5.556 11.124C5.46 11.324 5.336 11.588 5.184 11.916C5.04 12.244 4.856 12.66 4.632 13.164C4.944 13.116 5.24 13.076 5.52 13.044C5.808 13.012 6.048 12.996 6.24 12.996ZM11.7142 13.152C11.7942 13.152 11.8862 13.168 11.9902 13.2C12.1022 13.224 12.2022 13.26 12.2902 13.308C12.3782 13.348 12.4502 13.392 12.5062 13.44C12.5702 13.488 12.6022 13.532 12.6022 13.572C12.4422 13.908 12.2942 14.248 12.1582 14.592C12.0222 14.928 11.9062 15.252 11.8102 15.564C11.7142 15.876 11.6382 16.168 11.5822 16.44C11.5342 16.712 11.5102 16.948 11.5102 17.148C11.5102 17.372 11.5342 17.56 11.5822 17.712C11.6302 17.856 11.7102 17.96 11.8222 18.024C11.7262 18.088 11.6022 18.14 11.4502 18.18C11.2982 18.22 11.1622 18.24 11.0422 18.24C10.6102 18.24 10.3942 17.944 10.3942 17.352C10.3942 16.896 10.5462 16.272 10.8502 15.48C10.6902 15.848 10.5062 16.196 10.2982 16.524C10.0902 16.844 9.87816 17.128 9.66216 17.376C9.44616 17.624 9.22616 17.828 9.00216 17.988C8.78616 18.14 8.58616 18.232 8.40216 18.264C8.10616 18.248 7.86616 18.108 7.68216 17.844C7.49816 17.572 7.40616 17.228 7.40616 16.812C7.40616 16.364 7.50216 15.892 7.69416 15.396C7.88616 14.9 8.13016 14.44 8.42616 14.016C8.73016 13.592 9.05816 13.24 9.41016 12.96C9.76216 12.672 10.1022 12.52 10.4302 12.504C10.5102 12.528 10.5982 12.576 10.6942 12.648C10.7982 12.72 10.8942 12.804 10.9822 12.9C11.0782 12.996 11.1582 13.096 11.2222 13.2C11.2862 13.296 11.3222 13.38 11.3302 13.452C11.0102 13.5 10.6782 13.656 10.3342 13.92C9.99816 14.184 9.69016 14.504 9.41016 14.88C9.13816 15.248 8.91416 15.644 8.73816 16.068C8.56216 16.492 8.47416 16.888 8.47416 17.256C8.47416 17.408 8.53016 17.504 8.64216 17.544C8.87416 17.496 9.14216 17.3 9.44616 16.956C9.75016 16.604 10.1182 16.064 10.5502 15.336C10.6302 15.192 10.7182 15.032 10.8142 14.856C10.9182 14.68 11.0222 14.496 11.1262 14.304C11.2302 14.112 11.3302 13.92 11.4262 13.728C11.5302 13.528 11.6262 13.336 11.7142 13.152ZM16.428 17.736C16.276 17.608 16.172 17.448 16.116 17.256C16.068 17.064 16.044 16.9 16.044 16.764C16.044 16.596 16.064 16.452 16.104 16.332C16.072 16.332 16 16.396 15.888 16.524C15.776 16.652 15.652 16.804 15.516 16.98C15.388 17.156 15.26 17.328 15.132 17.496C15.004 17.664 14.908 17.788 14.844 17.868C14.74 17.98 14.64 18.068 14.544 18.132C14.456 18.196 14.384 18.232 14.328 18.24C14.2 18.232 14.064 18.204 13.92 18.156C13.784 18.116 13.652 18.056 13.524 17.976C13.404 17.896 13.296 17.8 13.2 17.688C13.112 17.576 13.052 17.448 13.02 17.304C13.02 17.08 13.024 16.896 13.032 16.752C13.048 16.608 13.076 16.452 13.116 16.284C13.188 15.98 13.292 15.636 13.428 15.252C13.572 14.868 13.736 14.492 13.92 14.124C14.104 13.748 14.308 13.4 14.532 13.08C14.764 12.752 15.008 12.496 15.264 12.312C15.336 12.312 15.42 12.32 15.516 12.336C15.612 12.344 15.708 12.364 15.804 12.396C15.908 12.428 16.004 12.468 16.092 12.516C16.188 12.556 16.268 12.612 16.332 12.684C16.26 12.764 16.076 13.032 15.78 13.488C15.492 13.944 15.168 14.6 14.808 15.456C14.768 15.544 14.72 15.672 14.664 15.84C14.608 16.008 14.552 16.184 14.496 16.368C14.44 16.552 14.392 16.732 14.352 16.908C14.32 17.084 14.304 17.224 14.304 17.328C14.304 17.392 14.312 17.44 14.328 17.472C14.352 17.504 14.372 17.528 14.388 17.544C14.508 17.496 14.66 17.364 14.844 17.148C15.028 16.932 15.284 16.6 15.612 16.152C15.692 16.04 15.784 15.912 15.888 15.768C16 15.624 16.112 15.472 16.224 15.312C16.336 15.144 16.44 14.972 16.536 14.796C16.64 14.62 16.724 14.444 16.788 14.268C16.82 14.172 16.86 14.06 16.908 13.932C16.964 13.796 17.028 13.656 17.1 13.512C17.18 13.368 17.268 13.224 17.364 13.08C17.468 12.928 17.588 12.788 17.724 12.66C17.828 12.66 17.94 12.672 18.06 12.696C18.18 12.72 18.292 12.752 18.396 12.792C18.508 12.824 18.604 12.864 18.684 12.912C18.764 12.952 18.824 12.996 18.864 13.044C18.72 13.396 18.56 13.744 18.384 14.088C18.208 14.432 18.044 14.772 17.892 15.108C17.74 15.436 17.612 15.764 17.508 16.092C17.404 16.42 17.352 16.74 17.352 17.052C17.352 17.22 17.364 17.368 17.388 17.496C17.42 17.616 17.452 17.72 17.484 17.808C17.516 17.888 17.544 17.956 17.568 18.012C17.6 18.068 17.616 18.116 17.616 18.156C17.616 18.164 17.608 18.176 17.592 18.192C17.584 18.2 17.576 18.204 17.568 18.204C17.512 18.204 17.44 18.192 17.352 18.168C17.264 18.144 17.164 18.108 17.052 18.06C16.948 18.02 16.84 17.972 16.728 17.916C16.624 17.86 16.524 17.8 16.428 17.736ZM19.0817 17.232C19.0817 16.88 19.1657 16.388 19.3337 15.756C19.5017 15.116 19.7377 14.372 20.0417 13.524C20.5377 12.172 21.0017 11.048 21.4337 10.152C21.8737 9.248 22.3017 8.544 22.7177 8.04C22.8137 8.056 22.9297 8.096 23.0657 8.16C23.2097 8.224 23.3497 8.296 23.4857 8.376C23.6217 8.448 23.7417 8.524 23.8457 8.604C23.9577 8.684 24.0297 8.748 24.0617 8.796C23.4377 9.532 22.8897 10.324 22.4177 11.172C21.9457 12.02 21.5137 12.992 21.1217 14.088C20.7857 15.032 20.5297 15.884 20.3537 16.644C20.1777 17.396 20.0897 18.024 20.0897 18.528C20.0897 18.664 20.0897 18.748 20.0897 18.78C20.0897 18.812 20.0937 18.844 20.1017 18.876C19.9897 18.86 19.8937 18.832 19.8137 18.792C19.7337 18.752 19.6817 18.704 19.6577 18.648C19.6417 18.608 19.5977 18.548 19.5257 18.468C19.4537 18.396 19.3897 18.34 19.3337 18.3C19.2617 18.252 19.2017 18.128 19.1537 17.928C19.1057 17.72 19.0817 17.488 19.0817 17.232ZM22.6376 13.404C22.5976 13.356 22.5616 13.256 22.5296 13.104C22.4976 12.944 22.4816 12.808 22.4816 12.696C22.6896 12.712 22.8896 12.728 23.0816 12.744C23.2736 12.752 23.4496 12.76 23.6096 12.768C23.7296 12.528 23.8576 12.292 23.9936 12.06C24.1376 11.82 24.2736 11.604 24.4016 11.412C24.5376 11.212 24.6616 11.044 24.7736 10.908C24.8936 10.772 24.9856 10.684 25.0496 10.644C25.1296 10.644 25.2296 10.66 25.3496 10.692C25.4776 10.716 25.6056 10.752 25.7336 10.8C25.8616 10.84 25.9776 10.884 26.0816 10.932C26.1856 10.98 26.2576 11.028 26.2976 11.076C26.0576 11.38 25.8496 11.664 25.6736 11.928C25.5056 12.184 25.3216 12.48 25.1216 12.816C25.2816 12.816 25.4416 12.812 25.6016 12.804C25.7696 12.796 25.9376 12.784 26.1056 12.768C26.1456 12.808 26.1776 12.86 26.2016 12.924C26.2256 12.98 26.2376 13.04 26.2376 13.104C25.8456 13.248 25.3696 13.328 24.8096 13.344C24.6096 13.728 24.4296 14.112 24.2696 14.496C24.1176 14.872 23.9856 15.236 23.8736 15.588C23.7696 15.94 23.6856 16.272 23.6216 16.584C23.5656 16.896 23.5376 17.176 23.5376 17.424C23.5376 17.776 23.6696 17.972 23.9336 18.012C24.1736 17.98 24.4016 17.92 24.6176 17.832C24.8336 17.744 25.0256 17.632 25.1936 17.496C25.2416 17.568 25.2696 17.628 25.2776 17.676C25.2296 17.748 25.1456 17.832 25.0256 17.928C24.9136 18.024 24.7896 18.116 24.6536 18.204C24.5176 18.3 24.3856 18.38 24.2576 18.444C24.1296 18.508 24.0336 18.544 23.9696 18.552C23.7696 18.544 23.5696 18.5 23.3696 18.42C23.1696 18.34 22.9856 18.24 22.8176 18.12C22.6576 18 22.5256 17.868 22.4216 17.724C22.3176 17.572 22.2656 17.424 22.2656 17.28C22.2656 17.088 22.2896 16.848 22.3376 16.56C22.3936 16.264 22.4696 15.944 22.5656 15.6C22.6616 15.256 22.7736 14.896 22.9016 14.52C23.0296 14.144 23.1696 13.772 23.3216 13.404H22.6376ZM31.8551 17.232C31.8551 16.88 31.9391 16.388 32.1071 15.756C32.2751 15.116 32.5111 14.372 32.8151 13.524C33.3111 12.172 33.7751 11.048 34.2071 10.152C34.6471 9.248 35.0751 8.544 35.4911 8.04C35.5871 8.056 35.7031 8.096 35.8391 8.16C35.9831 8.224 36.1231 8.296 36.2591 8.376C36.3951 8.448 36.5151 8.524 36.6191 8.604C36.7311 8.684 36.8031 8.748 36.8351 8.796C36.2111 9.532 35.6631 10.324 35.1911 11.172C34.7191 12.02 34.2871 12.992 33.8951 14.088C33.5591 15.032 33.3031 15.884 33.1271 16.644C32.9511 17.396 32.8631 18.024 32.8631 18.528C32.8631 18.664 32.8631 18.748 32.8631 18.78C32.8631 18.812 32.8671 18.844 32.8751 18.876C32.7631 18.86 32.6671 18.832 32.5871 18.792C32.5071 18.752 32.4551 18.704 32.4311 18.648C32.4151 18.608 32.3711 18.548 32.2991 18.468C32.2271 18.396 32.1631 18.34 32.1071 18.3C32.0351 18.252 31.9751 18.128 31.9271 17.928C31.8791 17.72 31.8551 17.488 31.8551 17.232ZM34.7151 17.196C34.7151 17.124 34.7191 17.036 34.7271 16.932C34.7431 16.82 34.7671 16.676 34.7991 16.5C34.8311 16.316 34.8711 16.096 34.9191 15.84C34.9751 15.584 35.0431 15.276 35.1231 14.916C35.1391 14.836 35.1751 14.708 35.2311 14.532C35.2871 14.356 35.3591 14.172 35.4471 13.98C35.5431 13.78 35.6551 13.588 35.7831 13.404C35.9191 13.22 36.0791 13.084 36.2631 12.996C36.3991 13.028 36.5791 13.112 36.8031 13.248C37.0271 13.376 37.2191 13.556 37.3791 13.788C37.1951 13.996 37.0391 14.204 36.9111 14.412C36.7911 14.62 36.6791 14.836 36.5751 15.06C36.4791 15.284 36.3871 15.516 36.2991 15.756C36.2191 15.996 36.1271 16.248 36.0231 16.512C35.9351 16.736 35.8551 16.968 35.7831 17.208C35.7111 17.44 35.6711 17.644 35.6631 17.82C35.6631 17.964 35.6591 18.064 35.6511 18.12C35.6511 18.184 35.6311 18.216 35.5911 18.216C35.5591 18.216 35.4951 18.196 35.3991 18.156C35.3031 18.116 35.2031 18.056 35.0991 17.976C35.0031 17.888 34.9151 17.78 34.8351 17.652C34.7551 17.524 34.7151 17.372 34.7151 17.196ZM37.0071 11.988C37.0071 11.94 37.0191 11.868 37.0431 11.772C37.0031 11.732 36.9671 11.672 36.9351 11.592C36.9111 11.512 36.8991 11.44 36.8991 11.376C36.8991 11.304 36.9071 11.208 36.9231 11.088C36.9471 10.96 36.9751 10.824 37.0071 10.68C37.0391 10.536 37.0791 10.388 37.1271 10.236C37.1751 10.076 37.2231 9.932 37.2711 9.804C37.3671 9.804 37.4831 9.832 37.6191 9.888C37.7631 9.936 37.9071 10.004 38.0511 10.092C38.1951 10.172 38.3271 10.264 38.4471 10.368C38.5671 10.464 38.6591 10.556 38.7231 10.644C38.6351 10.732 38.5191 10.856 38.3751 11.016C38.2311 11.168 38.0911 11.332 37.9551 11.508C37.8191 11.676 37.6951 11.836 37.5831 11.988C37.4711 12.14 37.3991 12.248 37.3671 12.312C37.2711 12.296 37.1871 12.256 37.1151 12.192C37.0431 12.12 37.0071 12.052 37.0071 11.988ZM39.483 12.18C39.691 12.244 39.887 12.388 40.071 12.612C40.255 12.828 40.391 13.068 40.479 13.332C40.391 13.548 40.255 13.808 40.071 14.112C39.887 14.416 39.703 14.728 39.519 15.048C39.335 15.36 39.167 15.66 39.015 15.948C38.871 16.228 38.787 16.46 38.763 16.644C38.891 16.508 39.031 16.352 39.183 16.176C39.343 15.992 39.495 15.812 39.639 15.636C39.791 15.452 39.931 15.288 40.059 15.144C40.187 14.992 40.287 14.88 40.359 14.808C40.511 14.648 40.691 14.464 40.899 14.256C41.107 14.04 41.323 13.84 41.547 13.656C41.779 13.464 42.011 13.304 42.243 13.176C42.475 13.04 42.687 12.972 42.879 12.972C43.087 12.972 43.259 13.044 43.395 13.188C43.539 13.324 43.651 13.468 43.731 13.62C43.731 13.636 43.699 13.66 43.635 13.692C43.579 13.716 43.495 13.792 43.383 13.92C43.271 14.064 43.143 14.264 42.999 14.52C42.863 14.768 42.727 15.04 42.591 15.336C42.463 15.624 42.355 15.92 42.267 16.224C42.179 16.528 42.135 16.804 42.135 17.052C42.135 17.252 42.159 17.38 42.207 17.436C42.263 17.492 42.339 17.52 42.435 17.52C42.523 17.52 42.615 17.5 42.711 17.46C42.807 17.42 42.883 17.4 42.939 17.4C42.971 17.416 42.995 17.452 43.011 17.508C43.035 17.556 43.047 17.6 43.047 17.64C42.983 17.696 42.907 17.752 42.819 17.808C42.731 17.864 42.639 17.916 42.543 17.964C42.447 18.012 42.351 18.052 42.255 18.084C42.167 18.116 42.087 18.132 42.015 18.132C41.783 18.132 41.591 18.096 41.439 18.024C41.295 17.96 41.179 17.872 41.091 17.76C41.011 17.648 40.955 17.516 40.923 17.364C40.891 17.204 40.875 17.036 40.875 16.86C40.875 16.764 40.883 16.656 40.899 16.536C40.915 16.416 40.947 16.276 40.995 16.116C41.043 15.948 41.111 15.752 41.199 15.528C41.287 15.296 41.399 15.02 41.535 14.7C41.519 14.7 41.411 14.756 41.211 14.868C41.011 14.98 40.795 15.152 40.563 15.384C40.187 15.744 39.847 16.1 39.543 16.452C39.247 16.804 38.943 17.196 38.631 17.628C38.455 17.876 38.299 18.084 38.163 18.252C38.035 18.428 37.923 18.544 37.827 18.6C37.659 18.504 37.535 18.368 37.455 18.192C37.375 18.024 37.315 17.848 37.275 17.664C37.275 17.512 37.295 17.32 37.335 17.088C37.383 16.856 37.443 16.6 37.515 16.32C37.595 16.032 37.691 15.732 37.803 15.42C37.915 15.108 38.039 14.796 38.175 14.484C38.479 13.78 38.755 13.228 39.003 12.828C39.259 12.428 39.419 12.212 39.483 12.18ZM48.3155 13.032C48.2835 13.528 48.1955 13.956 48.0515 14.316C47.9075 14.668 47.6995 14.98 47.4275 15.252C47.1635 15.516 46.8395 15.756 46.4555 15.972C46.0715 16.188 45.6235 16.396 45.1115 16.596C45.1115 16.644 45.1075 16.696 45.0995 16.752C45.0995 16.8 45.0995 16.852 45.0995 16.908C45.0995 17.012 45.1075 17.12 45.1235 17.232C45.1395 17.344 45.1675 17.448 45.2075 17.544C45.2475 17.64 45.3035 17.72 45.3755 17.784C45.4475 17.84 45.5395 17.868 45.6515 17.868C45.8675 17.868 46.0795 17.82 46.2875 17.724C46.4955 17.628 46.6915 17.512 46.8755 17.376C47.0675 17.232 47.2435 17.08 47.4035 16.92C47.5715 16.752 47.7195 16.6 47.8475 16.464C47.9275 16.536 47.9955 16.604 48.0515 16.668C47.6915 17.148 47.2955 17.548 46.8635 17.868C46.4395 18.18 46.0355 18.38 45.6515 18.468C45.0995 18.404 44.6675 18.204 44.3555 17.868C44.0515 17.524 43.8995 17.112 43.8995 16.632C43.8995 16.304 43.9435 15.972 44.0315 15.636C44.1275 15.292 44.2555 14.964 44.4155 14.652C44.5835 14.332 44.7755 14.032 44.9915 13.752C45.2155 13.472 45.4515 13.228 45.6995 13.02C45.9555 12.812 46.2155 12.648 46.4795 12.528C46.7515 12.408 47.0195 12.348 47.2835 12.348C47.6515 12.396 47.9955 12.624 48.3155 13.032ZM47.4875 13.428C47.2715 13.46 47.0475 13.548 46.8155 13.692C46.5835 13.836 46.3635 14.028 46.1555 14.268C45.9555 14.508 45.7715 14.788 45.6035 15.108C45.4355 15.428 45.3035 15.772 45.2075 16.14C45.8475 15.82 46.3795 15.428 46.8035 14.964C47.2275 14.492 47.4555 13.98 47.4875 13.428Z" fill="black"/>
<path d="M24.0943 19.5095L23.9828 19.4235H23.6481L23.5365 19.3375H22.3093L22.1977 19.2515H21.5283L21.4167 19.1655H18.7391L18.6276 19.2515H17.1772L17.0656 19.3375H15.8384L15.7268 19.4235L13.3839 19.5095L13.2724 19.5955H12.2683L12.1567 19.6815H11.1526L11.041 19.7675H10.26L10.1485 19.8535H9.25595L9.14438 19.9395H8.36341L8.25185 20.0255H7.58244L7.47088 20.1115H6.68991L6.57834 20.1975L5.12797 20.2835L5.01641 20.3695H4.45857L4.34701 20.4555H3.78917L3.6776 20.5416H3.0082L2.89664 20.6276H2.45037L2.3388 20.7136H1.78097L1.6694 20.7996H1.3347V20.9716L1.11157 21.0576L1 21.2296L1.22313 21.4016H1.55783L1.6694 21.4876H2.3388L2.45037 21.5736H2.78507L2.89664 21.6596H3.11977L3.90074 21.9176H4.34701L4.45857 21.8316H5.12797L5.23954 21.7456H5.90894L6.02051 21.6596H6.80148L6.91304 21.5736H7.58244L7.69401 21.4876H8.47498L8.58655 21.4016H9.25595L9.36751 21.3156H10.1485L10.26 21.2296H10.9295L11.041 21.1436H11.7104L11.822 21.0576H12.4914L12.603 20.9716H13.2724L13.3839 20.8856H14.0533L14.1649 20.7996H14.8343L14.9459 20.7136H15.5037L15.6153 20.6276H16.3962L16.5078 20.5416H17.1772L17.2888 20.4555L19.0738 20.3695L19.1854 20.2835H20.1895L20.3011 20.1975H21.3052L21.4167 20.1115H22.3093L22.7555 19.9395H23.0902L23.5365 19.7675H23.8712L24.0943 19.5955V19.5095Z" fill="#1F2933"/>
<path d="M50.1887 18.0881H50.0744L49.9601 18H49.5031L49.3888 18.0881H45.3894L45.2751 18.1762H44.1324L44.0182 18.2643H42.9897L42.8755 18.3524H42.0756L41.9613 18.4404H41.0472L40.9329 18.5285H40.2473L40.133 18.6166H39.3331L39.2189 18.7047H38.419L38.3047 18.7928H37.6191L37.5048 18.8809H36.705L36.5907 18.969H35.5623L35.448 19.0571H34.5338L34.4196 19.1452H33.8482L33.0483 19.6737V19.7618L32.7055 20.026V20.1141L32.477 20.2903V20.3784L31.9057 20.9069V21.0831H32.8198L32.9341 20.995H33.1626L33.2769 20.9069H33.3912L33.5054 20.8188H33.734L33.8482 20.7307H34.191L34.3053 20.6427H34.5338L34.6481 20.5546H35.1052L35.2195 20.4665H35.5623L35.6765 20.3784H36.1336L36.2479 20.2903H36.8192L36.9335 20.2022H37.3906L37.5048 20.1141H38.1904L38.3047 20.026H38.7618L38.8761 19.938H39.5617L39.6759 19.8499H40.2473L40.3616 19.7618H40.9329L41.0472 19.6737H41.5042L41.6185 19.5856H42.0756L42.1899 19.4975H42.6469L42.7612 19.4094H43.3325L43.4468 19.3213H44.0182L44.1324 19.2332H44.7038L44.818 19.1452H45.2751L45.3894 19.0571H45.8465L45.9607 18.969H46.3035L46.4178 18.8809H46.7606L46.8749 18.7928H47.332L47.4462 18.7047H47.789L47.9033 18.6166H48.3604L48.4746 18.5285H48.9317L49.046 18.4404H49.5031L49.6173 18.3524H50.0744L50.1887 18.2643V18.0881Z" fill="#1F2933"/>
</g>
<defs>
<clipPath id="clip0_78_542">
<rect width="51" height="30" fill="white"/>
</clipPath>
</defs>
</svg>
