<svg xmlns="http://www.w3.org/2000/svg" width="1254" height="1254" viewBox="0 0 1254 1254" shape-rendering="geometricPrecision">

<path d="M 843 555 L 838 551 L 819 547 L 779 547 L 707 553 L 703 555 L 671 607 L 724 598 L 782 578 L 831 566 L 831 562 L 834 559 L 842 558 Z" fill="#141c2a" fill-rule="evenodd"/>
<path d="M 647 382 L 568 393 L 486 415 L 397 448 L 378 460 L 366 475 L 366 481 L 377 494 L 396 497 L 527 465 L 466 589 L 386 624 L 370 637 L 366 652 L 377 656 L 385 667 L 436 655 L 394 762 L 364 866 L 362 915 L 369 916 L 375 930 L 510 637 L 576 621 L 607 569 L 596 566 L 543 573 L 585 489 Z" fill="#141c2a" fill-rule="evenodd"/>
<path d="M 960 373 L 957 370 L 936 363 L 888 359 L 811 362 L 728 372 L 724 377 L 697 439 L 822 408 L 916 391 L 923 386 L 953 384 L 954 379 L 960 377 Z" fill="#141c2a" fill-rule="evenodd"/>
<path d="M 755 253 L 600 506 L 602 511 L 654 528 L 588 649 L 625 658 L 627 663 L 500 917 L 675 641 L 632 631 L 631 627 L 706 507 L 650 487 Z" fill="#ff4b2b" fill-rule="evenodd"/>
</svg>